<svg width="585" height="202" viewBox="0 0 585 202" fill="none" xmlns="http://www.w3.org/2000/svg">
<path d="M144.36 0.399986C147.048 0.399986 149.16 1.26399 150.696 2.99199C152.424 4.52799 153.288 6.63999 153.288 9.32799V193.072C153.096 195.76 152.136 197.968 150.408 199.696C148.68 201.232 146.568 202 144.072 202C141.576 202 139.464 201.136 137.736 199.408C136.008 197.68 135.144 195.568 135.144 193.072V107.248H18.216V193.072C18.024 195.568 17.064 197.68 15.336 199.408C13.608 201.136 11.496 202 9 202C6.312 202 4.104 201.232 2.376 199.696C0.840001 197.968 0.0720012 195.76 0.0720012 193.072V9.32799C0.0720012 6.63999 0.936002 4.52799 2.664 2.99199C4.392 1.26399 6.6 0.399986 9.288 0.399986C11.784 0.399986 13.896 1.26399 15.624 2.99199C17.352 4.71999 18.216 6.83199 18.216 9.32799V90.544H135.144V9.32799C135.144 6.83199 136.008 4.71999 137.736 2.99199C139.656 1.26399 141.864 0.399986 144.36 0.399986ZM354.521 186.448C357.401 188.368 358.841 190.768 358.841 193.648C358.841 194.608 358.457 195.856 357.689 197.392C356.921 198.736 355.865 199.792 354.521 200.56C353.177 201.328 351.737 201.712 350.201 201.712C348.281 201.712 346.649 201.328 345.305 200.56C339.929 197.488 335.609 192.496 332.345 185.584C329.081 178.672 327.449 167.632 327.449 152.464C327.449 139.024 323.705 129.616 316.217 124.24C308.729 118.672 299.801 115.888 289.433 115.888H225.497V193.36C225.497 195.856 224.729 197.968 223.193 199.696C221.657 201.232 219.641 202 217.145 202C214.457 202 212.153 201.232 210.233 199.696C208.313 197.968 207.353 195.856 207.353 193.36V9.04C207.353 6.54399 208.121 4.52799 209.657 2.99199C211.385 1.26399 213.497 0.399986 215.993 0.399986H293.753C304.697 0.399986 314.489 2.79999 323.129 7.6C331.769 12.208 338.489 18.64 343.289 26.896C348.281 35.152 350.777 44.464 350.777 54.832C350.777 67.12 347.513 77.968 340.985 87.376C334.649 96.592 326.297 102.928 315.929 106.384C324.377 109.648 331.289 115.216 336.665 123.088C342.041 130.768 344.825 140.176 345.017 151.312C345.209 163.216 345.977 171.568 347.321 176.368C348.857 181.168 351.257 184.528 354.521 186.448ZM294.617 100.048C301.337 99.472 307.577 97.264 313.337 93.424C319.097 89.584 323.705 84.4 327.161 77.872C330.617 71.344 332.345 63.856 332.345 55.408C332.345 44.464 328.601 35.44 321.113 28.336C313.817 21.04 304.217 17.392 292.313 17.392H225.497V100.048H294.617ZM575.971 0.399986C578.275 0.399986 580.195 1.26399 581.731 2.99199C583.459 4.52799 584.323 6.54399 584.323 9.04V193.36C584.323 195.856 583.459 197.968 581.731 199.696C580.003 201.232 577.891 202 575.395 202C572.707 202 570.499 201.232 568.771 199.696C567.043 197.968 566.179 195.856 566.179 193.36V34.96L498.499 137.488C496.579 139.984 494.371 141.136 491.875 140.944H491.299C488.995 140.944 486.883 139.792 484.963 137.488L417.283 34.384V193.36C417.283 195.856 416.419 197.968 414.691 199.696C413.155 201.232 411.139 202 408.643 202C406.147 202 404.131 201.232 402.595 199.696C401.059 197.968 400.291 195.856 400.291 193.36V9.04C400.291 6.73599 401.059 4.71999 402.595 2.99199C404.323 1.26399 406.435 0.399986 408.931 0.399986C410.275 0.399986 411.715 0.783987 413.251 1.55199C414.787 2.12799 415.939 2.99199 416.707 4.14399L492.163 117.328L568.195 4.14399C570.307 1.26399 572.899 0.0159912 575.971 0.399986Z" fill="#3590DC"/>
</svg>
